Coordinates
version=1
nRows=29
nColumns=24
inDegrees=yes

Units are S.I. units (second, meters, Newtons, ...)
Angles are in degrees.

endheader
time	pelvis_tilt	pelvis_list	pelvis_rotation	pelvis_tx	pelvis_ty	pelvis_tz	hip_flexion_r	hip_adduction_r	hip_rotation_r	knee_angle_r	ankle_angle_r	subtalar_angle_r	mtp_angle_r	hip_flexion_l	hip_adduction_l	hip_rotation_l	knee_angle_l	ankle_angle_l	subtalar_angle_l	mtp_angle_l	lumbar_extension	lumbar_bending	lumbar_rotation
      0.98150000	      6.20912922	     -4.77457705	      2.85318119	      0.52001689	      1.01286600	      0.32847485	      4.20304476	      9.16609399	      1.53951953	    -20.46927104	     10.55106255	    -14.06373961	     -2.88397540	      4.55941336	     -6.59265253	      0.72798347	    -67.72526409	     -0.06965709	     -6.97501425	      1.05630557	    -18.41304093	     15.24330216	     -4.59689580
      0.98566667	      6.24746558	     -4.56344755	      2.67280446	      0.52458635	      1.01394982	      0.32907254	      3.62836360	      8.99083022	      1.78210501	    -20.01506779	     10.56503155	    -14.08871288	     -2.86282907	      5.06992005	     -6.40650211	      0.57953838	    -67.48776676	      0.63460765	     -6.71643129	      1.00327343	    -18.51242525	     14.89150386	     -4.32793874
      0.98983333	      6.28862942	     -4.35845080	      2.48626332	      0.52915062	      1.01500812	      0.32966996	      3.04853178	      8.81735669	      2.03113586	    -19.54891213	     10.55079513	    -14.10902920	     -2.83887372	      5.56554616	     -6.23042241	      0.41945951	    -67.20354354	      1.33211374	     -6.48940034	      0.93915059	    -18.62278164	     14.53774080	     -4.01032538
      0.99400000	      6.34778125	     -4.15242934	      2.30342519	      0.53370868	      1.01607704	      0.33024917	      2.44479320	      8.63827729	      2.27763921	    -19.06723194	     10.52416276	    -14.13180837	     -2.81371158	      6.03139686	     -6.05589455	      0.25593686	    -66.87156688	      2.01300470	     -6.26781543	      0.87018650	    -18.74974497	     14.18960771	     -3.71270786
      0.99816667	      6.37401683	     -3.91822498	      2.11546940	      0.53825129	      1.01707358	      0.33082146	      1.89877338	      8.42063783	      2.50486768	    -18.63243175	     10.49889514	    -14.13009057	     -2.79634424	      6.52034536	     -5.84099570	      0.09880643	    -66.49017548	      2.65671891	     -6.08219475	      0.82648098	    -18.84749741	     13.80894508	     -3.50640391
      1.00233333	      6.42908273	     -3.73417927	      1.92859564	      0.54283688	      1.01805922	      0.33138679	      1.29289184	      8.25596352	      2.75847927	    -18.12878844	     10.46320201	    -14.16451396	     -2.76178481	      6.96850384	     -5.70082364	     -0.08507708	    -66.07566442	      3.30801047	     -5.86645924	      0.72577363	    -18.95878210	     13.48403678	     -3.10050829
      1.00650000	      6.47060937	     -3.50335244	      1.74633053	      0.54739958	      1.01900633	      0.33193514	      0.72422087	      8.03254648	      2.97659397	    -17.67426904	     10.47952356	    -14.17466754	     -2.73400718	      7.41717555	     -5.49755691	     -0.24996350	    -65.60143590	      3.89405687	     -5.67044994	      0.65049228	    -19.04076879	     13.11376793	     -2.87219586
      1.01066667	      6.51716346	     -3.29290609	      1.56570859	      0.55193885	      1.01990893	      0.33246550	      0.15226097	      7.82767049	      3.20504672	    -17.21374232	     10.45862171	    -14.17777317	     -2.70669085	      7.85659416	     -5.31738465	     -0.41361401	    -65.09931105	      4.48000360	     -5.48994651	      0.57267895	    -19.15433574	     12.76157378	     -2.60761640
      1.01483333	      6.58498819	     -3.08763788	      1.38482507	      0.55650635	      1.02081330	      0.33298261	     -0.44821958	      7.62181011	      3.41789454	    -16.73849715	     10.43450642	    -14.18406930	     -2.67518704	      8.25519133	     -5.14672760	     -0.58713629	    -64.54659335	      5.02883753	     -5.35783815	      0.47942899	    -19.26690621	     12.42053833	     -2.32801330
      1.01900000	      6.62833871	     -2.87722878	      1.20252110	      0.56106416	      1.02165351	      0.33348464	     -1.01443576	      7.40566946	      3.63727569	    -16.27672213	     10.41573426	    -14.18388441	     -2.63860466	      8.67116489	     -4.96338046	     -0.74975766	    -63.95532305	      5.53676086	     -5.25254717	      0.36828939	    -19.36530455	     12.07273577	     -2.04817063
      1.02316667	      6.65609694	     -2.65226675	      1.02157695	      0.56559544	      1.02241572	      0.33395959	     -1.54416253	      7.16660022	      3.83587850	    -15.85092596	     10.42074669	    -14.15470535	     -2.60830139	      9.09643091	     -4.75473129	     -0.89788263	    -63.32665616	      6.00731005	     -5.16281451	      0.27882757	    -19.44424560	     11.72484295	     -1.83543421
      1.02733333	      6.72578774	     -2.46451093	      0.84209681	      0.57015763	      1.02320301	      0.33442403	     -2.13565757	      6.96330418	      4.03592634	    -15.38470800	     10.38282491	    -14.13048986	     -2.56338704	      9.46207833	     -4.59558814	     -1.05824371	    -62.66222589	      6.46203214	     -5.13577467	      0.13560167	    -19.56730076	     11.40507211	     -1.53329602
      1.03150000	      6.78458569	     -2.25119212	      0.66440183	      0.57470365	      1.02394171	      0.33486395	     -2.70011287	      6.72607954	      4.21887046	    -14.94807107	     10.38322245	    -14.08760269	     -2.51557299	      9.82723630	     -4.39758732	     -1.20155815	    -61.95146422	      6.85945454	     -5.12454300	     -0.01337764	    -19.67344120	     11.06331628	     -1.28978646
      1.03566667	      6.85885598	     -2.04174447	      0.48808287	      0.57924574	      1.02466407	      0.33528966	     -3.27775088	      6.48835304	      4.38909022	    -14.51382091	     10.38257877	    -14.03678644	     -2.46448773	     10.16380226	     -4.20035450	     -1.33702878	    -61.20178228	      7.22228201	     -5.14510300	     -0.17320134	    -19.79793864	     10.72531762	     -1.05067436
      1.03983333	      6.85579998	     -1.83229201	      0.31653423	      0.58379728	      1.02522012	      0.33567808	     -3.74862108	      6.24539418	      4.54009459	    -14.13058469	     10.40975407	    -13.98149345	     -2.44060304	     10.57945458	     -3.99166325	     -1.44292288	    -60.42941502	      7.54714483	     -5.16579668	     -0.24576388	    -19.81407790	     10.42028125	     -0.91256215
      1.04400000	      6.94427298	     -1.63605924	      0.14676571	      0.58834141	      1.02586576	      0.33606626	     -4.33725538	      6.01272400	      4.69586509	    -13.69993017	     10.44700682	    -13.90102932	     -2.40456354	     10.88057010	     -3.80180292	     -1.55627851	    -59.61404378	      7.82018795	     -5.26865863	     -0.35926013	    -19.96107566	     10.07816564	     -0.63663009
      1.04816667	      6.98383020	     -1.44077342	     -0.02168714	      0.59288736	      1.02639478	      0.33642179	     -4.85503563	      5.77554446	      4.83056605	    -13.30438011	     10.47682655	    -13.81492045	     -2.36990330	     11.22590275	     -3.60212566	     -1.64565141	    -58.77042606	      8.07436597	     -5.38342138	     -0.47009402	    -20.04019120	      9.76532858	     -0.41109087
      1.05233333	      7.04274497	     -1.25198468	     -0.19050532	      0.59743225	      1.02691002	      0.33675406	     -5.39109560	      5.54030712	      4.95928310	    -12.91148681	     10.50930694	    -13.70890266	     -2.33092632	     11.53669941	     -3.40364659	     -1.72217391	    -57.89177918	      8.29474348	     -5.53662455	     -0.59655731	    -20.14671044	      9.46483697	     -0.17641871
      1.05650000	      7.08610226	     -1.07218824	     -0.35200789	      0.60197991	      1.02735832	      0.33706345	     -5.90439138	      5.31157672	      5.07409362	    -12.52929058	     10.55007680	    -13.60248251	     -2.29500025	     11.85603408	     -3.21043044	     -1.77856346	    -56.98566099	      8.48066001	     -5.70525539	     -0.71582529	    -20.22719532	      9.17548531	      0.03699713
      1.06066667	      7.13124119	     -0.89195526	     -0.51058945	      0.60652835	      1.02776108	      0.33734676	     -6.41360115	      5.07793054	      5.16963155	    -12.15689280	     10.60168380	    -13.47917623	     -2.26068814	     12.16074721	     -3.00978120	     -1.81696873	    -56.04561548	      8.63739016	     -5.90271221	     -0.83194399	    -20.31047525	      8.89017260	      0.24666872
      1.06483333	      7.18740932	     -0.72863590	     -0.66272819	      0.61106437	      1.02811974	      0.33760888	     -6.93045455	      4.85957885	      5.25618998	    -11.79058583	     10.66069495	    -13.34067120	     -2.22496543	     12.44553630	     -2.82431918	     -1.83675336	    -55.08314726	      8.77231147	     -6.11764087	     -0.95572015	    -20.41279834	      8.62395228	      0.46311391
      1.06900000	      7.21942888	     -0.56270126	     -0.81011883	      0.61561663	      1.02840955	      0.33784284	     -7.41578287	      4.63531252	      5.32779483	    -11.43630776	     10.72737754	    -13.20020176	     -2.19147479	     12.74284498	     -2.62892086	     -1.83570811	    -54.08697549	      8.86707209	     -6.35425379	     -1.07655052	    -20.48019835	      8.35807228	      0.66764481
      1.07316667	      7.26871714	     -0.40081772	     -0.95286361	      0.62016391	      1.02868172	      0.33805257	     -7.91437982	      4.41176667	      5.38306649	    -11.09121343	     10.80423142	    -13.03784297	     -2.15684883	     13.00689403	     -2.43191675	     -1.81353090	    -53.05520889	      8.93567873	     -6.61199455	     -1.20536207	    -20.57152669	      8.09945427	      0.87329271
      1.07733333	      7.29689698	     -0.26638465	     -1.08694222	      0.62470956	      1.02885694	      0.33824137	     -8.38595773	      4.21752696	      5.43419296	    -10.75466672	     10.88427831	    -12.87369947	     -2.12119441	     13.28959698	     -2.26396151	     -1.77054187	    -52.01394537	      8.99015756	     -6.86933168	     -1.34368029	    -20.63953551	      7.87554920	      1.08073127
      1.08150000	      7.33806641	     -0.11678013	     -1.21461523	      0.62925514	      1.02901976	      0.33839860	     -8.86811690	      4.00398379	      5.46216196	    -10.42338768	     10.97896611	    -12.70540980	     -2.08956408	     13.53961658	     -2.07335888	     -1.71147613	    -50.92679155	      9.00111149	     -7.14298311	     -1.47435365	    -20.71881691	      7.63821557	      1.26833167
      1.08566667	      7.37849902	      0.01525777	     -1.33517890	      0.63379700	      1.02912624	      0.33853823	     -9.34452349	      3.80881076	      5.48290854	    -10.10222625	     11.07509278	    -12.52753163	     -2.05841894	     13.78135139	     -1.90005691	     -1.63224766	    -49.82099030	      8.99456972	     -7.41909653	     -1.60926994	    -20.80035913	      7.41918941	      1.45892549
      1.08983333	      7.38657570	      0.13743189	     -1.44853895	      0.63834216	      1.02913548	      0.33864894	     -9.77778728	      3.62413264	      5.49297648	     -9.79861933	     11.18286086	    -12.35043969	     -2.02773287	     14.04792589	     -1.73386827	     -1.53041577	    -48.69246962	      8.96251482	     -7.70291113	     -1.75069253	    -20.84461007	      7.21795197	      1.64972983
      1.09400000	      7.39332870	      0.24482785	     -1.55214710	      0.64288999	      1.02908918	      0.33873945	    -10.20660780	      3.45592450	      5.49304681	     -9.50234490	     11.29404451	    -12.16827455	     -1.99808431	     14.30528462	     -1.58424077	     -1.41319487	    -47.54370928	      8.91403364	     -7.97700623	     -1.89712549	    -20.88803319	      7.03451055	      1.83286271
      1.09816667	      7.40557355	      0.34687776	     -1.64708487	      0.64743947	      1.02901382	      0.33880323	    -10.64273844	      3.29298961	      5.48787648	     -9.20258983	     11.40217991	    -11.99814295	     -1.97203247	     14.54201569	     -1.43833246	     -1.27890750	    -46.36380679	      8.83712521	     -8.24839289	     -2.03672116	    -20.93716488	      6.86231793	      2.00377490
